<?xml version="1.0"?>
<svg xmlns="http://www.w3.org/2000/svg" xmlns:xlink="http://www.w3.org/1999/xlink" xmlns:svgjs="http://svgjs.com/svgjs" version="1.1" width="256" height="256" x="0" y="0" viewBox="0 0 24 24" style="enable-background:new 0 0 512 512" xml:space="preserve"><g><path d="M22.773,7.721A4.994,4.994,0,0,0,19,6H15.011l.336-2.041A3.037,3.037,0,0,0,9.626,2.122L8,5.417V21H18.3a5.024,5.024,0,0,0,4.951-4.3l.705-5A4.994,4.994,0,0,0,22.773,7.721Z" fill="#415fd5" data-original="#000000"/><path d="M0,11v5a5.006,5.006,0,0,0,5,5H6V6H5A5.006,5.006,0,0,0,0,11Z" fill="#415fd5" data-original="#000000"/></g></svg>
