<?xml version="1.0"?>
<svg xmlns="http://www.w3.org/2000/svg" xmlns:xlink="http://www.w3.org/1999/xlink" xmlns:svgjs="http://svgjs.com/svgjs" version="1.1" width="256" height="256" x="0" y="0" viewBox="0 0 24 24" style="enable-background:new 0 0 512 512" xml:space="preserve"><g><path d="M8.5,3a3,3,0,1,1,3,3A3,3,0,0,1,8.5,3ZM22.016,20l-2-5H13.5a.5.5,0,0,1-.5-.5V13h6V10H13V8H10v6.5a3.5,3.5,0,0,0,2.628,3.376A5,5,0,1,1,8,11V8a8,8,0,1,0,7.737,10h2.247l2,5H24V20Z" fill="#13b791" data-original="#000000"/></g></svg>
